<svg width="20" height="20" xmlns="http://www.w3.org/2000/svg"><path d="M 19.6,10.2273 C 19.6,9.5182 19.5364,8.8364 19.4182,8.1818 H 10 V 12.05 h 5.3818 c -0.2318,1.25 -0.9363,2.3091 -1.9954,3.0182 v 2.5091 h 3.2318 C 18.5091,15.8364 19.6,13.2727 19.6,10.2273 Z" fill="#4285f4"/><path d="m 10,20 c 2.7,0 4.9636,-0.8955 6.6181,-2.4227 l -3.2318,-2.5091 c -0.8954,0.6 -2.0409,0.9545 -3.3863,0.9545 -2.6046,0 -4.8091,-1.7591 -5.5955,-4.1227 H 1.0636 v 2.5909 C 2.7091,17.7591 6.0909,20 10,20 Z" fill="#34a853"/><path d="M 4.4045,11.9 C 4.2045,11.3 4.0909,10.6591 4.0909,10 4.0909,9.3409 4.2045,8.7 4.4045,8.1 V 5.5091 H 1.0636 C 0.3864,6.8591 0,8.3864 0,10 c 0,1.6136 0.3864,3.1409 1.0636,4.4909 z" fill="#fbbc04"/><path d="m 10,3.9773 c 1.4681,0 2.7863,0.5045 3.8227,1.4954 L 16.6909,2.6045 C 14.9591,0.9909 12.6954,0 10,0 6.0909,0 2.7091,2.2409 1.0636,5.5091 L 4.4045,8.1 C 5.1909,5.7364 7.3954,3.9773 10,3.9773 Z" fill="#e94235"/></svg>