<svg width="48" height="48" xmlns="http://www.w3.org/2000/svg"><path d="m 6.2515,21.5288 c 0,5.9594 -4.3488,5.9594 -5.4360,7.0466 -1.0871,1.0871 -1.0871,3.2615 0,4.3487 1.0871,1.0872 3.2615,1.0872 3.4267,1.6634 0.1651,0.5761 -1.6788,1.7283 -2.0246,3.2265 -0.3458,1.4981 0.8063,3.3420 2.3045,3.6879 1.4981,0.3458 3.3420,-0.8063 3.7874,-0.4053 0.4454,0.4010 -0.5077,2.3553 -0.0071,3.8091 0.5005,1.4537 2.4549,2.4069 3.9086,1.9063 1.4537,-0.5005 3.3600,-4.4091 14.9146,-4.4091 A 20.8742,20.8742 0 1 0 6.2515,21.5288 m 22.3771,3.2250 a 3.7573,3.7573 0 1 1 7.5147,0 z m -2.2544,-9.7378 m -3.7573,0 a 3.7573,3.7573 0 1 1 7.5147,0 3.7573,3.7573 0 1 1 -7.5147,0 m 15.7809,0 m -3.7573,0 a 3.7573,3.7573 0 1 1 7.5147,0 3.7573,3.7573 0 1 1 -7.5147,0" fill="#9191ff"/></svg>
